# xmcd CD database file
#
# Track frame offsets:
#	150
#	30376
#	50257
#	72760
#	95713
#	109971
#	126545
#	149500
#	172982
#	201188
#	223318
#	252421
#
# Disc length: 3520 seconds
#
# Revision: 1
# Processed by: cddbd v1.5.2PL0 Copyright (c) Steve Scherf et al.
# Submitted via: CDex 1.51
#
DISCID=bc0dbe0c
DTITLE=Ken Peplowski - It's A Lonesome Old Town
DYEAR=1995
DGENRE=Jazz
TTITLE0=More Than Ever
TTITLE1=They Can't Take That Away From Me
TTITLE2=It's A Lonesome Old Town
TTITLE3=These Foolish Things (Remind Me Of You)
TTITLE4=Supposin'
TTITLE5=Bonicrates De Muletas
TTITLE6=It Never Entered My Mind
TTITLE7=In My Life
TTITLE8=Last Night When We Were Young
TTITLE9=The Eternal Triangle
TTITLE10=Zingaro
TTITLE11=Crimehouse
EXTD=YEAR: 1995
EXTT0=
EXTT1=
EXTT2=
EXTT3=
EXTT4=
EXTT5=
EXTT6=
EXTT7=
EXTT8=
EXTT9=
EXTT10=
EXTT11=
PLAYORDER=
